<!DOCTYPE svg PUBLIC "-//W3C//DTD SVG 1.1//EN" "http://www.w3.org/Graphics/SVG/1.1/DTD/svg11.dtd">
<!-- Uploaded to: SVG Repo, www.svgrepo.com, Transformed by: SVG Repo Mixer Tools -->
<svg fill="#FFFFFF" width="800px" height="800px" viewBox="0 0 20 20" xmlns="http://www.w3.org/2000/svg" stroke="#FFFFFF">
<g id="SVGRepo_bgCarrier" stroke-width="0"/>
<g id="SVGRepo_tracerCarrier" stroke-linecap="round" stroke-linejoin="round"/>
<g id="SVGRepo_iconCarrier">
<path d="M14.4 9H8.6c-.552 0-.6.447-.6 1s.048 1 .6 1h5.8c.552 0 .6-.447.6-1s-.048-1-.6-1zm2 5H8.6c-.552 0-.6.447-.6 1s.048 1 .6 1h7.8c.552 0 .6-.447.6-1s-.048-1-.6-1zM8.6 6h7.8c.552 0 .6-.447.6-1s-.048-1-.6-1H8.6c-.552 0-.6.447-.6 1s.048 1 .6 1zM5.4 9H3.6c-.552 0-.6.447-.6 1s.048 1 .6 1h1.8c.552 0 .6-.447.6-1s-.048-1-.6-1zm0 5H3.6c-.552 0-.6.447-.6 1s.048 1 .6 1h1.8c.552 0 .6-.447.6-1s-.048-1-.6-1zm0-10H3.6c-.552 0-.6.447-.6 1s.048 1 .6 1h1.8c.552 0 .6-.447.6-1s-.048-1-.6-1z"/>
</g>
</svg>